<svg width="139" height="139" viewBox="0 0 139 139" fill="none" xmlns="http://www.w3.org/2000/svg">
<path fill-rule="evenodd" clip-rule="evenodd" d="M19.5764 54.2597L4.45531 69.3649L19.5764 84.4701V80.6977L10.6562 71.7866L8.69804 69.8305L10.6562 67.8744L19.5764 58.9633V54.2597ZM19.5764 50.3476L2.49719 67.4089L0.539062 69.3649L2.49719 71.321L19.5764 88.3825V116.979V119.745H22.3457H50.9726L67.812 136.567L69.7698 138.523L71.7277 136.567L88.5674 119.745H114.714H117.484V116.979V90.8592L137.043 71.321L139.001 69.3649L137.043 67.4089L117.484 47.8707V24.7076V21.9413H114.714H91.5277L71.7277 2.16311L69.7698 0.207031L67.812 2.16311L48.0125 21.9413H22.3457H19.5764V24.7076V50.3476ZM22.3457 51.4934V56.197L25.016 53.5297V48.8259L22.3457 51.4934ZM25.016 44.9137L22.3457 47.5813V24.7076H45.2433L42.5735 27.3747H27.7852H25.016V30.1411V44.9137ZM27.7852 46.0595V50.7634L48.4293 30.1411H43.7205L27.7852 46.0595ZM39.8043 30.1411L27.7852 42.1474V30.1411H39.8043ZM46.4897 27.3747H51.1985L53.8683 24.7076H49.1598L46.4897 27.3747ZM51.9291 21.9413H56.6381L68.2772 10.3129L70.2351 8.35687L72.1957 10.3129L83.8348 21.9413H87.612L69.7698 4.11918L51.9291 21.9413ZM90.3812 24.7076H86.604L89.2735 27.3747H93.0507L90.3812 24.7076ZM95.82 30.1411H92.0427L109.276 47.3547V43.5831L95.82 30.1411ZM109.276 39.671L99.7357 30.1411H109.276V39.671ZM112.045 42.4373V30.1411V27.3747H109.276H96.9664L94.2969 24.7076H114.714V45.1043L112.045 42.4373ZM112.045 46.3495V50.1211L114.714 52.7881V49.0165L112.045 46.3495ZM117.484 51.7828V55.5544L129.818 67.8744L131.776 69.8305L129.818 71.7866L117.484 84.1069V86.9471L135.085 69.3649L117.484 51.7828ZM114.714 89.7134V86.8732L112.045 89.5402V92.3804L114.714 89.7134ZM109.276 95.1467V92.3065L90.0157 111.545H92.8597L109.276 95.1467ZM96.7754 111.545L109.276 99.0588V111.545H96.7754ZM94.0061 114.312H109.276H112.045V111.545V96.2925L114.714 93.6255V116.979H91.3366L94.0061 114.312ZM90.0904 114.312H87.2464L84.5769 116.979H87.4209L90.0904 114.312ZM84.6517 119.745H81.8077L72.1957 129.348L70.2351 131.304L68.2772 129.348L58.6652 119.745H54.8888L69.7698 134.611L84.6517 119.745ZM52.1196 116.979H55.8963L53.2259 114.312H49.4495L52.1196 116.979ZM46.6803 111.545H50.4567L27.7852 88.8979V92.6703L46.6803 111.545ZM27.7852 96.5824L42.7637 111.545H27.7852V96.5824ZM25.016 93.8161V111.545V114.312H27.7852H45.533L48.2033 116.979H22.3457V91.1488L25.016 93.8161ZM25.016 89.904V86.1316L22.3457 83.464V87.2364L25.016 89.904ZM22.3457 79.5519L25.016 82.2192V57.4418L22.3457 60.1094V79.5519ZM19.5764 62.8757L12.6143 69.8305L19.5764 76.7856V62.8757ZM27.7852 54.6755V84.9855L54.3729 111.545H86.1L109.276 88.3941V51.2669L88.1271 30.1411H52.3456L27.7852 54.6755ZM55.1148 27.3747H85.3578L82.6883 24.7076H57.7846L55.1148 27.3747ZM60.5538 21.9413H79.9191L70.2351 12.269L60.5538 21.9413ZM112.045 54.0332V85.6278L114.714 82.9608V56.7002L112.045 54.0332ZM117.484 59.4665V80.1945L127.86 69.8305L117.484 59.4665ZM83.3308 114.312H57.1421L59.8117 116.979H80.6612L83.3308 114.312ZM77.892 119.745H62.5809L70.2351 127.392L77.892 119.745Z" fill="#822E27"/>
</svg>
