<svg width="360" height="139" viewBox="0 0 360 139" fill="none" xmlns="http://www.w3.org/2000/svg">
<g clip-path="url(#clip0_1637_7579)">
<path d="M2.45703 52.9621H12.2933V20.9171C12.2933 11.4452 18.4964 8.34696 23.3703 8.34696C25.054 8.34696 29.3075 8.70105 31.7887 12.0649C34.3586 15.5172 34.27 18.2614 34.27 20.9171V72.2599H27.4466V59.3357H19.1167V72.2599H12.2933V59.3357H6.44472L2.45703 52.9621ZM19.1167 52.9621H27.4466V20.9171C27.4466 18.7926 27.4466 15.1632 23.2816 15.1632C19.1167 15.1632 19.1167 18.8811 19.1167 20.9171V52.9621ZM36.8993 52.9621H46.7356V9.94036H53.559V52.9621C55.2427 51.7228 58.2556 49.4212 60.1166 45.6148C62.8636 40.2149 62.8636 36.2314 62.8636 33.4872V9.94036H69.7756V33.4872C69.7756 40.392 68.2692 47.6508 62.8636 52.8736C69.7756 54.8211 69.7756 59.8668 69.7756 62.611V72.2599H62.8636V62.434C62.8636 60.6635 62.8636 59.3357 60.028 59.3357H53.559V72.2599H46.7356V59.3357H40.887L36.8993 52.9621ZM71.1644 52.9621H81.0007V9.94036H87.8241V52.9621H96.597V9.94036H103.42V72.2599H96.597V59.3357H87.8241V72.2599H81.0007V59.3357H75.1521L71.1644 52.9621ZM132.369 72.2599H122.444C114.645 63.6733 110.126 52.608 110.126 41.0116C110.126 29.5037 114.911 18.6155 122.444 9.94036H132.369C128.292 13.4812 116.949 23.3957 116.949 41.0116C116.949 59.0701 127.761 68.2764 132.369 72.2599ZM136.572 62.9651V19.2352C136.572 11.9764 142.332 8.34696 147.738 8.34696C155.625 8.34696 158.992 14.3665 158.992 19.2352V62.9651C158.992 72.1714 151.017 73.8533 147.915 73.8533C142.421 73.8533 136.572 70.578 136.572 62.9651ZM143.396 20.9171V61.1061C143.396 63.3192 143.396 66.8601 147.915 66.8601C152.169 66.8601 152.169 63.0536 152.169 61.1061V20.9171C152.169 18.9696 152.169 15.1632 147.826 15.1632C143.396 15.1632 143.396 19.0581 143.396 20.9171ZM174.904 72.2599H168.081V6.66504L182.968 32.5135V9.94036H189.88V72.2599H182.968V44.9066L174.904 31.5397V72.2599ZM204.551 72.2599H197.728V65.4437H204.551V72.2599Z" fill="#822E27"/>
<path d="M59.5391 124.82V93.3533H69.6858C73.0463 93.3533 75.628 94.1961 77.4308 95.8819C79.2482 97.5675 80.1568 99.8007 80.1568 102.581C80.1568 105.377 79.2482 107.639 77.4308 109.368C75.628 111.097 73.0463 111.961 69.6858 111.961H63.6281V124.82H59.5391ZM63.6281 108.633H69.6858C72.0798 108.633 73.7458 108.049 74.6834 106.882C75.6208 105.701 76.0897 104.267 76.0897 102.581C76.0897 100.896 75.6208 99.4912 74.6834 98.3672C73.7458 97.2289 72.0798 96.6598 69.6858 96.6598H63.6281V108.633ZM77.2793 124.82L69.5775 110.297L73.6231 109.692L81.8228 124.82H77.2793ZM86.3228 124.82V93.3533H105.924V96.703H90.4116V106.904H103.933V110.275H90.4116V121.47H106.14V124.82H86.3228ZM107.611 124.82L119.467 93.1372H123.188L135.044 124.82H130.804L122.193 100.939C122.02 100.449 121.868 99.988 121.738 99.5559C121.609 99.1091 121.493 98.6411 121.392 98.1512H121.176C121.075 98.6411 120.96 99.1091 120.83 99.5559C120.7 99.988 120.549 100.449 120.376 100.939L111.678 124.82H107.611ZM112.695 116.564L113.928 113.215H128.662L129.895 116.564H112.695ZM138.678 124.82V93.3533H142.767V121.47H157.587V124.82H138.678ZM156.181 96.703V93.3533H180.412V96.703H170.33V124.82H166.263V96.703H156.181ZM192.441 124.82V113.02L181.623 93.3533H186.21L193.306 106.709C193.537 107.142 193.746 107.538 193.933 107.898C194.121 108.258 194.294 108.633 194.453 109.022H194.582C194.741 108.633 194.914 108.258 195.102 107.898C195.303 107.538 195.52 107.142 195.751 106.709L202.933 93.3533H207.347L196.53 113.02V124.82H192.441Z" fill="#6CA2E3"/>
<path fill-rule="evenodd" clip-rule="evenodd" d="M240.576 54.3886L225.455 69.4938L240.576 84.599V80.8266L231.656 71.9155L229.698 69.9594L231.656 68.0033L240.576 59.0922V54.3886ZM240.576 50.4765L223.497 67.5378L221.539 69.4938L223.497 71.4499L240.576 88.5114V117.108V119.874H243.346H271.973L288.812 136.696L290.77 138.652L292.728 136.696L309.567 119.874H335.714H338.484V117.108V90.9881L358.043 71.4499L360.001 69.4938L358.043 67.5378L338.484 47.9996V24.8365V22.0702H335.714H312.528L292.728 2.29202L290.77 0.335938L288.812 2.29202L269.013 22.0702H243.346H240.576V24.8365V50.4765ZM243.346 51.6223V56.3259L246.016 53.6586V48.9548L243.346 51.6223ZM246.016 45.0426L243.346 47.7102V24.8365H266.243L263.573 27.5036H248.785H246.016V30.27V45.0426ZM248.785 46.1885V50.8923L269.429 30.27H264.721L248.785 46.1885ZM260.804 30.27L248.785 42.2763V30.27H260.804ZM267.49 27.5036H272.199L274.868 24.8365H270.16L267.49 27.5036ZM272.929 22.0702H277.638L289.277 10.4418L291.235 8.48578L293.196 10.4418L304.835 22.0702H308.612L290.77 4.24809L272.929 22.0702ZM311.381 24.8365H307.604L310.274 27.5036H314.051L311.381 24.8365ZM316.82 30.27H313.043L330.276 47.4836V43.712L316.82 30.27ZM330.276 39.7999L320.736 30.27H330.276V39.7999ZM333.045 42.5662V30.27V27.5036H330.276H317.966L315.297 24.8365H335.714V45.2332L333.045 42.5662ZM333.045 46.4784V50.25L335.714 52.917V49.1454L333.045 46.4784ZM338.484 51.9117V55.6833L350.818 68.0033L352.776 69.9594L350.818 71.9155L338.484 84.2358V87.076L356.085 69.4938L338.484 51.9117ZM335.714 89.8423V87.0021L333.045 89.6691V92.5093L335.714 89.8423ZM330.276 95.2756V92.4354L311.016 111.674H313.86L330.276 95.2756ZM317.775 111.674L330.276 99.1878V111.674H317.775ZM315.006 114.441H330.276H333.045V111.674V96.4214L335.714 93.7544V117.108H312.337L315.006 114.441ZM311.09 114.441H308.246L305.577 117.108H308.421L311.09 114.441ZM305.652 119.874H302.808L293.196 129.477L291.235 131.433L289.277 129.477L279.665 119.874H275.889L290.77 134.74L305.652 119.874ZM273.12 117.108H276.896L274.226 114.441H270.449L273.12 117.108ZM267.68 111.674H271.457L248.785 89.0268V92.7992L267.68 111.674ZM248.785 96.7113L263.764 111.674H248.785V96.7113ZM246.016 93.945V111.674V114.441H248.785H266.533L269.203 117.108H243.346V91.2777L246.016 93.945ZM246.016 90.0329V86.2605L243.346 83.5929V87.3653L246.016 90.0329ZM243.346 79.6808L246.016 82.3481V57.5707L243.346 60.2383V79.6808ZM240.576 63.0046L233.614 69.9594L240.576 76.9145V63.0046ZM248.785 54.8044V85.1144L275.373 111.674H307.1L330.276 88.523V51.3958L309.127 30.27H273.346L248.785 54.8044ZM276.115 27.5036H306.358L303.688 24.8365H278.785L276.115 27.5036ZM281.554 22.0702H300.919L291.235 12.3979L281.554 22.0702ZM333.045 54.1621V85.7567L335.714 83.0897V56.8291L333.045 54.1621ZM338.484 59.5954V80.3234L348.86 69.9594L338.484 59.5954ZM304.331 114.441H278.142L280.812 117.108H301.661L304.331 114.441ZM298.892 119.874H283.581L291.235 127.521L298.892 119.874Z" fill="#822E27"/>
</g>
<defs>
<clipPath id="clip0_1637_7579">
<rect width="360" height="138.316" fill="white" transform="translate(0 0.335938)"/>
</clipPath>
</defs>
</svg>
