<?xml version="1.0" encoding="UTF-8"?>
<svg version="1.1" xmlns="http://www.w3.org/2000/svg" width="1200" height="1200">
<path d="M0 0 C2.25546719 0.0056467 4.51092684 0.00846312 6.76639938 0.0110817 C28.57270405 0.0478792 50.13097015 0.50170492 71.78254318 3.31805801 C73.19778992 3.49235743 74.61315894 3.66566624 76.02863693 3.83807755 C161.7222231 14.37771352 244.58810658 43.42150449 363.78254318 121.31805801 C364.41934006 121.80322891 365.05613693 122.28839981 365.71223068 122.78827286 C377.35510505 131.69544019 388.47036439 141.21732787 399.30598068 151.08758926 C400.69349027 152.3372233 402.08709677 153.5804315 403.50179672 154.79919815 C408.37380241 158.99951447 412.99588989 163.38463633 417.53644943 167.93915176 C418.24099762 168.64274323 418.94554581 169.34633469 419.67144394 170.0712471 C421.14907685 171.54820449 422.62546775 173.02640544 424.10065842 174.50580215 C426.339208 176.74970886 428.58304791 178.98822506 430.82746506 181.22626114 C432.27244722 182.67190419 433.7171191 184.11785747 435.16144943 185.56415176 C436.15236336 186.55202934 436.15236336 186.55202934 437.16329575 187.55986404 C441.56716306 191.98561523 445.71731465 196.58071874 449.78254318 201.31805801 C450.75579667 202.43585961 451.72963612 203.55315167 452.70441818 204.66962051 C459.10902357 212.06290125 465.30968853 219.58091731 471.26496506 227.34100723 C472.31762822 228.71238211 473.37387244 230.08101272 474.43293381 231.44745255 C534.55570612 309.16507658 573.56917742 401.10587637 593.09504318 519.00555801 C593.24231857 520.17087051 593.38959396 521.33618301 593.54133224 522.53680801 C594.0030539 526.45982013 594.40653805 530.38612607 594.78254318 534.31805801 C594.86867874 535.19747055 594.9548143 536.07688309 595.04356003 536.98294449 C596.77673002 555.17347748 597.14704031 573.28119577 597.1006012 591.53551483 C597.0949545 593.79098202 597.09213807 596.04644167 597.0895195 598.30191422 C597.05272199 620.10821888 596.59889627 641.66648498 593.78254318 663.31805801 C593.60824376 664.73330475 593.43493496 666.14867377 593.26252365 667.56415176 C581.81670014 760.6255882 548.19806776 851.17242269 467.78254318 965.31805801 C467.10320724 966.15852676 466.42387131 966.99899551 465.72394943 967.86493301 C461.53726608 973.02925543 457.2804182 978.13182527 452.97004318 983.19305801 C452.53337326 983.70900528 452.09670334 984.22495255 451.64680099 984.75653458 C441.97619119 996.05142465 431.5972163 1006.66671831 421.07209396 1017.15887833 C419.01736811 1019.20819313 416.96811215 1021.26287064 414.91926193 1023.31805801 C413.58755153 1024.64910826 412.25553131 1025.97984863 410.92316818 1027.31024551 C410.32401596 1027.91142197 409.72486374 1028.51259842 409.10755539 1029.13199234 C404.82716559 1033.38917155 400.36117959 1037.38509948 395.78254318 1041.31805801 C394.6183171 1042.32698387 393.4542284 1043.3360683 392.29035568 1044.34540176 C391.1631096 1045.31586994 390.03550884 1046.28592629 388.90754318 1047.25555801 C388.35969162 1047.72928848 387.81184006 1048.20301895 387.24738693 1048.69110489 C382.19648016 1053.03118611 377.00235896 1057.18357526 371.78254318 1061.31805801 C371.02924728 1061.91674698 370.27595139 1062.51543594 369.49982834 1063.132267 C292.19712816 1124.19852643 198.06428907 1165.68383742 81.47004318 1184.06805801 C80.72421982 1184.16919907 79.97839645 1184.27034012 79.20997238 1184.37454605 C54.70322241 1187.65889646 30.26195885 1188.69894505 5.56508636 1188.63611603 C3.30961918 1188.63046933 1.05415953 1188.6276529 -1.20131302 1188.62503433 C-23.00954586 1188.58823357 -44.56312286 1188.12285191 -66.21745682 1185.31805801 C-67.6111884 1185.14886049 -69.00507403 1184.98092783 -70.39909744 1184.81415176 C-156.0051947 1174.47772925 -239.14393748 1145.13879039 -368.21745682 1059.31805801 C-369.05792557 1058.63872208 -369.89839432 1057.95938614 -370.76433182 1057.25946426 C-375.92865424 1053.07278091 -381.03122407 1048.81593303 -386.09245682 1044.50555801 C-386.60840408 1044.06888809 -387.12435135 1043.63221817 -387.65593338 1043.18231583 C-398.95082345 1033.51170602 -409.56611711 1023.13273113 -420.05827713 1012.6076088 C-422.10759193 1010.55288294 -424.16226944 1008.50362698 -426.21745682 1006.45477676 C-427.54850707 1005.12306636 -428.87924743 1003.79104614 -430.20964432 1002.45868301 C-431.111409 1001.55995468 -431.111409 1001.55995468 -432.03139114 1000.64307022 C-436.2886624 996.36258786 -440.28230609 991.89488006 -444.21745682 987.31805801 C-445.19081911 986.20035117 -446.16467471 985.08307344 -447.13933182 983.96649551 C-453.5439372 976.57321478 -459.74460217 969.05519872 -465.69987869 961.2951088 C-466.75254185 959.92373391 -467.80878607 958.55510331 -468.86784744 957.18866348 C-528.9932312 879.46766378 -568.00275887 787.53621828 -587.52995682 669.63055801 C-587.7508699 667.88258926 -587.7508699 667.88258926 -587.97624588 666.09930801 C-588.43796754 662.1762959 -588.84145169 658.24998996 -589.21745682 654.31805801 C-589.30359238 653.43864548 -589.38972794 652.55923294 -589.47847366 651.65317154 C-591.21164365 633.46263855 -591.58195395 615.35492026 -591.53551483 597.1006012 C-591.52986813 594.84513401 -591.52705171 592.58967436 -591.52443314 590.33420181 C-591.48763563 568.52789715 -591.03380991 546.96963105 -588.21745682 525.31805801 C-588.0431574 523.90281128 -587.86984859 522.48744226 -587.69743729 521.07196426 C-577.15780132 435.37837809 -548.11401034 352.51249462 -470.21745682 233.31805801 C-469.73228592 232.68126114 -469.24711502 232.04446426 -468.74724197 231.38837051 C-459.84007464 219.74549615 -450.31818696 208.63023681 -440.44792557 197.79462051 C-439.19829153 196.40711092 -437.95508333 195.01350442 -436.73631668 193.59880447 C-432.53600036 188.72679878 -428.1508785 184.10471131 -423.59636307 179.56415176 C-422.54097588 178.50732948 -422.54097588 178.50732948 -421.46426773 177.42915726 C-419.98731034 175.95152435 -418.50910939 174.47513345 -417.02971268 172.99994278 C-414.78580597 170.7613932 -412.54728977 168.51755329 -410.30925369 166.27313614 C-408.86361064 164.82815398 -407.41765736 163.38348209 -405.97136307 161.93915176 C-405.31277802 161.27854248 -404.65419296 160.6179332 -403.97565079 159.93730545 C-399.5498996 155.53343814 -394.95479609 151.38328655 -390.21745682 147.31805801 C-389.09965522 146.34480453 -387.98236316 145.37096508 -386.86589432 144.39618301 C-379.47261358 137.99157763 -371.95459752 131.79091266 -364.1945076 125.83563614 C-362.82313272 124.78297298 -361.45450212 123.72672876 -360.08806229 122.66766739 C-282.37043825 62.54489507 -190.42963846 23.53142378 -72.52995682 4.00555801 C-70.78198807 3.78464493 -70.78198807 3.78464493 -68.99870682 3.55926895 C-65.0756947 3.09754729 -61.14938876 2.69406314 -57.21745682 2.31805801 C-56.33804428 2.23192245 -55.45863174 2.1457869 -54.55257034 2.05704117 C-36.36203735 0.32387118 -18.25431906 -0.04643912 0 0 Z " fill="#780023" transform="translate(597.217456817627,5.681941986083984)"/>
<path d="M0 0 C0 359.7 0 719.4 0 1090 C-6.14789215 1090 -11.91864779 1089.82409335 -17.9765625 1089.1171875 C-19.22982582 1088.97539314 -19.22982582 1088.97539314 -20.50840759 1088.83073425 C-23.21495121 1088.52020878 -25.92006816 1088.19925304 -28.625 1087.875 C-29.55529022 1087.76429169 -30.48558044 1087.65358337 -31.44406128 1087.53952026 C-48.49139072 1085.48989598 -65.2293229 1082.70885402 -82 1079 C-83.65854004 1078.63455078 -83.65854004 1078.63455078 -85.35058594 1078.26171875 C-121.36682838 1070.20786244 -156.57671113 1058.68594188 -190 1043 C-191.0607373 1042.50467773 -192.12147461 1042.00935547 -193.21435547 1041.49902344 C-225.04923236 1026.57864519 -256.10945335 1009.69915273 -284.17285156 988.3828125 C-286.13435366 986.8983192 -288.1087938 985.43233782 -290.0859375 983.96875 C-297.89519527 978.17649523 -305.55071131 972.2526591 -313 966 C-314.03505739 965.14050593 -315.07021807 964.28113624 -316.10546875 963.421875 C-323.35160493 957.37906435 -330.3461997 951.10647936 -337.22851562 944.65380859 C-339.12791761 942.88057967 -341.03980566 941.12147911 -342.953125 939.36328125 C-350.85268075 932.07529793 -358.37594824 924.60205806 -365.55126953 916.6015625 C-367.04756286 914.94741956 -368.56483914 913.31519048 -370.08984375 911.6875 C-376.34857843 905.00391092 -382.28633103 898.1612596 -388 891 C-388.92091185 889.87030792 -389.84284111 888.74144468 -390.765625 887.61328125 C-434.38954563 834.04524741 -465.55642819 772.38136968 -486.73535156 706.87866211 C-487.83290183 703.49227386 -488.9816119 700.12503186 -490.13671875 696.7578125 C-492.21781225 690.52089457 -493.84228376 684.20387318 -495.375 677.8125 C-495.67245117 676.57435547 -495.96990234 675.33621094 -496.27636719 674.06054688 C-499.79960711 659.15566738 -502.45600402 644.09766135 -505 629 C-505.2472583 627.58823486 -505.2472583 627.58823486 -505.49951172 626.14794922 C-510.40267985 597.95886901 -511.28337163 569.10729303 -511.3125 540.5625 C-511.31599457 539.4705835 -511.31948914 538.37866699 -511.3230896 537.25366211 C-511.3641584 514.183863 -509.50289523 491.45433381 -506.25 468.625 C-506.12094269 467.7058783 -505.99188538 466.78675659 -505.85891724 465.83978271 C-503.80731503 451.32082403 -501.21703784 437.0662541 -497.68945312 422.82421875 C-497.03156002 420.12927984 -496.42103994 417.42863617 -495.828125 414.71875 C-483.86904443 360.72262569 -460.72564377 308.1174732 -432 261 C-431.21496094 259.71077637 -431.21496094 259.71077637 -430.4140625 258.39550781 C-417.19395465 236.81217183 -402.24874821 216.40191439 -386 197 C-385.58041016 196.49549316 -385.16082031 195.99098633 -384.72851562 195.47119141 C-378.47785098 187.95898751 -372.03796498 180.66185867 -365.38818359 173.50146484 C-363.96548072 171.96266381 -362.55360854 170.4145634 -361.14453125 168.86328125 C-354.23385641 161.25881119 -347.25787837 153.87044285 -339.453125 147.171875 C-336.80077366 144.8236149 -334.22507123 142.40552822 -331.64868164 139.97460938 C-324.97896095 133.68433128 -318.18763953 127.69884176 -311 122 C-309.87260041 121.08207549 -308.74636466 120.1627203 -307.62109375 119.2421875 C-252.17450989 74.06902405 -184.96204316 37.15895517 -115.31835938 19.60253906 C-112.60158335 18.89645195 -109.90355914 18.13338556 -107.203125 17.3671875 C-81.16719704 10.03837764 -54.83712529 5.25249208 -28 2 C-27.02272949 1.88140625 -26.04545898 1.7628125 -25.03857422 1.640625 C-22.44350943 1.33224595 -19.84760891 1.03609066 -17.25 0.75 C-16.53046143 0.66975586 -15.81092285 0.58951172 -15.06958008 0.50683594 C-9.97215263 -0.01423712 -5.18995527 0 0 0 Z " fill="#FEFEFE" transform="translate(565,55)"/>
<path d="M0 0 C47.62929534 -0.68711346 93.89536452 3.16098926 140.30957031 14.36230469 C142.64619945 14.91614092 144.98429289 15.42901489 147.3359375 15.9140625 C162.21357929 19.04031087 176.60991919 24.16117912 191 29 C192.09940918 29.36754395 193.19881836 29.73508789 194.33154297 30.11376953 C229.94827771 42.12804035 263.85584763 58.59723325 296 78 C296.93005859 78.55864746 297.86011719 79.11729492 298.81835938 79.69287109 C325.66266563 95.86499827 351.52028329 114.53921632 374.59375 135.8046875 C376.63206484 137.6643189 378.69545346 139.48270663 380.77734375 141.29296875 C392.96309902 151.93389113 404.40349696 163.23479459 415.3203125 175.16748047 C416.89194544 176.88211373 418.47462711 178.5855711 420.0625 180.28515625 C425.98624278 186.64522587 431.57024895 193.21505489 437 200 C437.92240375 201.13083957 438.84562196 202.26101515 439.76953125 203.390625 C456.57765675 224.03462976 471.42450053 246.11721804 485 269 C485.70310303 270.17973389 485.70310303 270.17973389 486.42041016 271.38330078 C514.94840642 319.48990159 535.97601761 372.56501559 547.43505859 427.33984375 C548.02070151 430.09747781 548.64258482 432.84523201 549.26953125 435.59375 C552.49535553 449.99692172 554.64097008 464.47785133 556.31712341 479.13487244 C556.80054572 483.36185927 557.34305839 487.57703449 557.9140625 491.79296875 C563.02940963 532.43172082 561.35656991 574.48315434 556 615 C555.76837725 616.94502159 555.53885118 618.89029539 555.3125 620.8359375 C545.57456863 700.17977488 515.45800806 777.18454628 472 844 C471.31679687 845.05960938 470.63359375 846.11921875 469.9296875 847.2109375 C455.61327795 869.07491024 439.34064641 889.47689238 422 909 C421.38511719 909.69609375 420.77023437 910.3921875 420.13671875 911.109375 C409.13560286 923.45714349 397.91066706 935.52884244 385.58544922 946.56738281 C383.93747877 948.05649439 382.31222592 949.56734025 380.69140625 951.0859375 C374.00666823 957.34618532 367.16272344 963.28516309 360 969 C358.87030792 969.92091185 357.74144468 970.84284111 356.61328125 971.765625 C292.9577657 1023.60443556 216.76465057 1059.9796143 136.875 1078.4375 C135.62943329 1078.72539398 135.62943329 1078.72539398 134.35870361 1079.019104 C89.88878706 1089.2059386 45.53399352 1092.7027407 0 1092 C0 1091.67 0 1091.34 0 1091 C1.11375 1090.76925781 2.2275 1090.53851562 3.375 1090.30078125 C13.00790586 1088.261598 22.40020645 1085.88900344 31.74023438 1082.75683594 C33.33576862 1082.22246297 34.93367078 1081.69513526 36.53320312 1081.17285156 C83.39870693 1065.83905513 126.1747505 1041.24290591 162.25390625 1007.5625 C164.90763092 1005.08619362 167.60155682 1002.66335092 170.3125 1000.25 C176.30869297 994.85725776 181.87325018 989.25731146 187.1328125 983.14453125 C189.13153645 980.84892571 191.18945229 978.615204 193.25 976.375 C198.83653123 970.17404486 203.92496861 963.61975475 209 957 C209.72558105 956.05979004 209.72558105 956.05979004 210.46582031 955.10058594 C226.96354105 933.68077294 241.17492121 910.78072322 254 887 C254.46519043 886.14341797 254.93038086 885.28683594 255.40966797 884.40429688 C269.06844975 859.15859663 280.00199058 832.86437239 290 806 C290.23479065 805.36952759 290.4695813 804.73905518 290.71148682 804.08947754 C295.86735703 790.2158079 300.78205741 776.36749359 304.46875 762.02734375 C304.99468057 760.02029989 305.55294652 758.02560085 306.125 756.03125 C313.1577801 731.50728411 318.90124429 706.85242154 323.32861328 681.73364258 C323.9020016 678.54497802 324.50845498 675.36473954 325.12785339 672.18476868 C326.79759877 663.54798302 328.08347587 654.88776445 329.19775391 646.1628418 C329.49065674 643.88515554 329.79754681 641.60968121 330.10546875 639.33398438 C334.10091614 608.97527785 335.58705228 578.62786245 335.50673676 548.03027725 C335.49986834 545.32310829 335.49762736 542.61595951 335.4956665 539.90878296 C335.45416062 511.29130682 334.28829278 483.09693204 330.37359619 454.71203613 C329.99698488 451.97811242 329.63288516 449.242744 329.27099609 446.50683594 C317.29358386 356.77701507 290.78883248 267.41079685 215 143 C214.55172852 142.39865234 214.10345703 141.79730469 213.64160156 141.17773438 C204.71800425 129.24808043 195.04583866 117.99292109 185 107 C184.0805861 105.98710901 183.16132221 104.97408184 182.2421875 103.9609375 C174.85548357 95.83669784 167.3341108 88.15513903 159 81 C157.97993992 80.10476888 156.96045192 79.20888566 155.94140625 78.3125 C123.48041363 49.91501719 86.13210694 28.39928622 45.54248047 13.91650391 C43.4234438 13.15264145 41.32067245 12.36220524 39.22265625 11.54296875 C26.61375472 6.72866089 13.2351904 3.57652577 0 1 C0 0.67 0 0.34 0 0 Z " fill="#FEFEFE" transform="translate(586,54)"/>
<path d="M0 0 C-0.33 0.66 -0.66 1.32 -1 2 C-4.63 2 -8.26 2 -12 2 C-12 1.67 -12 1.34 -12 1 C-3.96428571 -1.27678571 -3.96428571 -1.27678571 0 0 Z " fill="#EBD9DE" transform="translate(598,1144)"/>
<path d="M0 0 C3.96 0 7.92 0 12 0 C11.67 0.99 11.34 1.98 11 3 C7.37 2.34 3.74 1.68 0 1 C0 0.67 0 0.34 0 0 Z " fill="#EAD8DD" transform="translate(586,54)"/>
</svg>
