<svg width="72" height="58" viewBox="0 0 72 58" fill="none" xmlns="http://www.w3.org/2000/svg">
<g clip-path="url(#clip0_806_2221)">
<path d="M47.8337 16.5781H39.873V24.8506H47.8337V16.5781Z" fill="#FFCC00" stroke="#22293F" stroke-width="0.02"/>
<path d="M47.8337 41.4351H39.873V49.7075H47.8337V41.4351Z" fill="#FFCC00" stroke="#22293F" stroke-width="0.02"/>
<path d="M64.0193 49.7207H56.0586V57.9932H64.0193V49.7207Z" fill="#FFCC00" stroke="#22293F" stroke-width="0.02"/>
<path d="M56.0466 0.00683594H48.0859V8.27929H56.0466V0.00683594Z" fill="#FFCC00" stroke="#22293F" stroke-width="0.02"/>
<path d="M71.9939 8.29248H64.0332V16.5649H71.9939V8.29248Z" fill="#FFCC00" stroke="#22293F" stroke-width="0.02"/>
<path d="M47.8337 33.1494H39.873V41.4219H47.8337V33.1494Z" fill="#FFCC00" stroke="#22293F" stroke-width="0.02"/>
<path d="M56.0466 49.7207H48.0859V57.9932H56.0466V49.7207Z" fill="#FFCC00" stroke="#22293F" stroke-width="0.02"/>
<path d="M71.9939 41.4351H64.0332V49.7075H71.9939V41.4351Z" fill="#FFCC00" stroke="#22293F" stroke-width="0.02"/>
<path d="M47.8337 8.29248H39.873V16.5649H47.8337V8.29248Z" fill="#FFCC00" stroke="#22293F" stroke-width="0.02"/>
<path d="M64.0193 0.00683594H56.0586V8.27929H64.0193V0.00683594Z" fill="#FFCC00" stroke="#22293F" stroke-width="0.02"/>
<path d="M47.8337 24.8638H39.873V33.1362H47.8337V24.8638Z" fill="#FAFAFA" stroke="#22293F" stroke-width="0.02"/>
<path d="M23.9138 24.8638H15.9531V33.1362H23.9138V24.8638Z" fill="#66FFFF" stroke="#22293F" stroke-width="0.02"/>
<path d="M7.96652 0.00683594H0.00585938V8.27929H7.96652V0.00683594Z" fill="#66FFFF" stroke="#22293F" stroke-width="0.02"/>
<path d="M7.96652 49.7207H0.00585938V57.9932H7.96652V49.7207Z" fill="#66FFFF" stroke="#22293F" stroke-width="0.02"/>
<path d="M23.9138 8.29248H15.9531V16.5649H23.9138V8.29248Z" fill="#66FFFF" stroke="#22293F" stroke-width="0.02"/>
<path d="M7.96652 16.5781H0.00585938V24.8506H7.96652V16.5781Z" fill="#66FFFF" stroke="#22293F" stroke-width="0.02"/>
<path d="M15.9411 0.00634766H7.98047V8.27881H15.9411V0.00634766Z" fill="#66FFFF" stroke="#22293F" stroke-width="0.02"/>
<path d="M31.8864 16.5781H23.9258V24.8506H31.8864V16.5781Z" fill="#66FFFF" stroke="#22293F" stroke-width="0.02"/>
<path d="M15.9411 33.1494H7.98047V41.4219H15.9411V33.1494Z" fill="#66FFFF" stroke="#22293F" stroke-width="0.02"/>
<path d="M7.96652 33.1494H0.00585938V41.4219H7.96652V33.1494Z" fill="#66FFFF" stroke="#22293F" stroke-width="0.02"/>
<path d="M7.96652 8.29248H0.00585938V16.5649H7.96652V8.29248Z" fill="#66FFFF" stroke="#22293F" stroke-width="0.02"/>
<path d="M7.96652 24.8638H0.00585938V33.1362H7.96652V24.8638Z" fill="#FAFAFA" stroke="#22293F" stroke-width="0.02"/>
<path d="M7.96652 41.4351H0.00585938V49.7075H7.96652V41.4351Z" fill="#66FFFF" stroke="#22293F" stroke-width="0.02"/>
</g>
<defs>
<clipPath id="clip0_806_2221">
<rect width="72" height="58" fill="white"/>
</clipPath>
</defs>
</svg>
